<svg width="28" height="24" viewBox="0 0 28 24" fill="none" xmlns="http://www.w3.org/2000/svg">
<path d="M25.8127 5.54675C25.8127 3.58654 24.2237 1.99749 22.2635 1.99749H5.48511C3.5249 1.99749 1.93584 3.58654 1.93584 5.54675V18.4532C1.93584 20.4134 3.5249 22.0024 5.48511 22.0024H22.2635C24.2237 22.0024 25.8127 20.4134 25.8127 18.4532V5.54675ZM27.7487 18.4532C27.7487 21.4826 25.2929 23.9384 22.2635 23.9384H5.48511C2.45569 23.9384 -0.00012207 21.4826 -0.00012207 18.4532V5.54675C-0.00012207 2.51734 2.45569 0.0615234 5.48511 0.0615234H22.2635C25.2929 0.0615234 27.7487 2.51734 27.7487 5.54675V18.4532Z" fill="#303030"/>
<path d="M19.8297 7.29569C20.288 7.02094 20.8831 7.17014 21.1581 7.62844C21.4329 8.0868 21.2837 8.68191 20.8254 8.95689L16.3648 11.6327C14.8321 12.5523 12.9165 12.5523 11.3838 11.6327L6.92323 8.95689C6.46494 8.68191 6.31574 8.0868 6.59049 7.62844C6.86547 7.17014 7.46058 7.02094 7.91894 7.29569L12.3807 9.97277C13.3003 10.5243 14.4483 10.5243 15.3679 9.97277L19.8297 7.29569Z" fill="#303030"/>
</svg>
