<svg width="39" height="39" viewBox="0 0 39 39" fill="none" xmlns="http://www.w3.org/2000/svg">
<path d="M19.233 -0.355469C8.53603 -0.355469 -0.13562 8.31618 -0.13562 19.0131C-0.13562 29.7101 8.53603 38.3809 19.233 38.3809C29.9291 38.3809 38.6007 29.7101 38.6007 19.0131C38.6007 8.31618 29.9291 -0.355469 19.233 -0.355469ZM25.8395 10.7803H23.8914C21.9726 10.7803 21.3745 11.971 21.3745 13.1925V16.0898H25.6583L24.974 20.5548H21.3745V31.3485H16.5478V20.5548H12.6256V16.0898H16.5478V12.687C16.5478 8.816 18.8534 6.67775 22.3822 6.67775C24.0719 6.67775 25.8395 6.97927 25.8395 6.97927V10.7803Z" fill="#7E7E7E"/>
</svg>
