<svg width="39" height="40" viewBox="0 0 39 40" fill="none" xmlns="http://www.w3.org/2000/svg">
<path d="M19.4261 0.644531C8.72916 0.644531 0.0583496 9.31537 0.0583496 20.0123C0.0583496 30.7092 8.72916 39.3809 19.4261 39.3809C30.1231 39.3809 38.7947 30.7092 38.7947 20.0123C38.7947 9.31537 30.1231 0.644531 19.4261 0.644531ZM14.996 26.1735H11.6664V15.4766H14.996V26.1735ZM13.3316 14.0169C12.2645 14.0169 11.4014 13.1522 11.4014 12.0875C11.4014 11.0253 12.2645 10.1614 13.3316 10.1614C14.3971 10.1614 15.2593 11.0253 15.2593 12.0875C15.2593 13.1522 14.3971 14.0169 13.3316 14.0169ZM27.4509 26.1735H24.1285V20.9729C24.1285 19.7319 24.1041 18.1366 22.4006 18.1366C20.6696 18.1366 20.4055 19.4873 20.4055 20.8827V26.1735H17.0823V15.4766H20.2722V16.9402H20.3152C20.7598 16.0983 21.8448 15.2124 23.4637 15.2124C26.83 15.2124 27.4509 17.4263 27.4509 20.3065V26.1735Z" fill="#7E7E7E"/>
</svg>
