<svg width="40" height="40" viewBox="0 0 40 40" fill="none" xmlns="http://www.w3.org/2000/svg">
<path d="M23.772 11.8307H15.7237C13.4303 11.8307 11.5651 13.6959 11.5651 15.9885V24.0376C11.5651 26.3303 13.4303 28.1955 15.7237 28.1955H23.772C26.0647 28.1955 27.9307 26.3303 27.9307 24.0376V15.9885C27.9307 13.6959 26.0647 11.8307 23.772 11.8307ZM19.8304 24.9771C17.0932 24.9771 14.8663 22.7503 14.8663 20.0131C14.8663 17.2759 17.0932 15.049 19.8304 15.049C22.5676 15.049 24.7952 17.2759 24.7952 20.0131C24.7952 22.7503 22.5676 24.9771 19.8304 24.9771ZM25.0845 15.8967C24.4319 15.8967 23.9029 15.3676 23.9029 14.715C23.9029 14.0624 24.4319 13.5333 25.0845 13.5333C25.7372 13.5333 26.2663 14.0624 26.2663 14.715C26.2663 15.3676 25.7372 15.8967 25.0845 15.8967Z" fill="#7E7E7E"/>
<path d="M19.7474 0.644531C9.05051 0.644531 0.380493 9.31618 0.380493 20.0123C0.380493 30.7092 9.05051 39.3809 19.7474 39.3809C30.4452 39.3809 39.116 30.7092 39.116 20.0123C39.116 9.31618 30.4452 0.644531 19.7474 0.644531ZM29.8275 24.0369C29.8275 27.3755 27.1106 30.0916 23.772 30.0916H15.7237C12.3842 30.0916 9.66898 27.3755 9.66898 24.0369V15.9886C9.66898 12.6499 12.3842 9.93303 15.7237 9.93303H23.772C27.1106 9.93303 29.8275 12.6499 29.8275 15.9886V24.0369Z" fill="#7E7E7E"/>
<path d="M19.8312 16.833C18.0765 16.833 16.6502 18.2593 16.6502 20.0132C16.6502 21.7662 18.0765 23.1933 19.8312 23.1933C21.5842 23.1933 23.0105 21.7662 23.0105 20.0132C23.0105 18.2593 21.5842 16.833 19.8312 16.833Z" fill="#7E7E7E"/>
</svg>
