<svg width="25" height="34" viewBox="0 0 25 34" fill="none" xmlns="http://www.w3.org/2000/svg">
<path d="M22.5824 7.00729C22.5824 4.2757 20.368 2.06133 17.6364 2.06133H6.64377C3.91218 2.06133 1.6978 4.2757 1.6978 7.00729V26.9926C1.6978 29.7242 3.91218 31.9386 6.64377 31.9386H17.6364C20.368 31.9386 22.5824 29.7242 22.5824 26.9926V7.00729ZM24.2802 25.9926C24.2802 30.2142 20.858 33.6364 16.6364 33.6364H7.64377C3.42223 33.6364 0 30.2142 0 25.9926V8.00729C0 3.78575 3.42223 0.363525 7.64377 0.363525H16.6364C20.858 0.363525 24.2802 3.78575 24.2802 8.00729V25.9926Z" fill="#303030"/>
<path d="M14.8379 25.5422C15.5829 25.5422 16.1868 26.1462 16.1868 26.8911C16.1868 27.6361 15.5829 28.24 14.8379 28.24H9.44228C8.69731 28.24 8.09338 27.6361 8.09338 26.8911C8.09338 26.1462 8.69731 25.5422 9.44228 25.5422H14.8379Z" fill="#303030"/>
</svg>
