<svg width="40" height="40" viewBox="0 0 40 40" fill="none" xmlns="http://www.w3.org/2000/svg">
<path d="M19.9109 0.644531C9.21391 0.644531 0.543091 9.31618 0.543091 20.0131C0.543091 30.7092 9.21391 39.3809 19.9109 39.3809C30.6078 39.3809 39.2794 30.7092 39.2794 20.0131C39.2794 9.31618 30.6078 0.644531 19.9109 0.644531ZM31.5603 25.2226V25.5526V25.8053L31.4498 26.0329C31.162 26.6254 30.6712 27.0463 29.9519 27.3194L29.8398 27.3617C29.4529 27.5104 29.0157 27.6778 28.4988 27.7201C28.2956 28.9538 27.4788 29.2155 26.8246 29.2155C26.7287 29.2155 26.6223 29.2098 26.502 29.2008C26.3419 29.1878 26.1818 29.161 25.9916 29.1269C25.7283 29.0806 25.482 29.0562 25.2577 29.0562C24.6636 29.0562 24.1882 29.2171 23.7599 29.5625C23.5811 29.7072 23.3876 29.8339 23.1926 29.9591L23.0902 30.0249C22.0499 30.6995 20.9804 31.0416 19.9117 31.0416C18.9592 31.0416 18.0091 30.7694 17.0883 30.2322C16.7535 30.0371 16.4308 29.8226 16.109 29.6064L15.727 29.3528C15.5181 29.2163 15.2808 29.1318 14.9809 29.0862C14.8728 29.0692 14.7656 29.0635 14.6591 29.0635C14.3844 29.0635 14.0837 29.1049 13.7668 29.1496C13.5977 29.1732 13.4295 29.196 13.2612 29.2147C13.1751 29.2244 13.0898 29.2293 13.006 29.2293C12.0779 29.2293 11.3969 28.6279 11.3497 27.768C11.3489 27.7469 11.3473 27.7282 11.3449 27.7136C11.2912 27.6981 11.1969 27.6778 11.0409 27.6608C10.5419 27.6055 10.1071 27.4243 9.75764 27.278C9.07413 26.9919 8.61658 26.5758 8.35895 26.0044L8.26143 25.7891V25.5526V25.2226V24.8138L8.52882 24.5042C8.6629 24.3481 9.02049 23.9336 9.64548 23.8101C10.8816 23.5655 11.8455 22.808 12.6785 21.4264C12.7387 21.3265 12.7866 21.2428 12.8248 21.1737C12.7314 21.1355 12.6111 21.09 12.455 21.0355C12.3802 21.0111 12.3063 20.9859 12.2323 20.9551C11.8796 20.8104 11.4733 20.6292 11.1059 20.3106C10.5427 19.8205 10.3054 19.1216 10.4712 18.4413C10.6492 17.7131 11.249 17.1426 12.0365 16.9533C12.1982 16.9142 12.3648 16.8947 12.533 16.8947C12.7151 16.8947 12.8825 16.9167 13.0377 16.95C13.0126 16.3657 13.0174 15.7317 13.0515 15.0157C13.1499 12.9011 14.1804 11.2041 16.0293 10.1086C17.2882 9.36251 18.5943 8.98378 19.9109 8.98378C21.2136 8.98378 22.5067 9.35438 23.7526 10.0858C25.4682 11.092 26.4938 12.6296 26.7173 14.5322C26.8132 15.3465 26.8148 16.1487 26.7766 16.9419C26.9286 16.9134 27.0904 16.8939 27.2635 16.8939C27.5812 16.8939 27.8925 16.9598 28.1883 17.0898C28.9564 17.4271 29.4407 18.1366 29.4229 18.8981C29.4099 19.4174 29.1563 19.9302 28.7264 20.3033C28.3379 20.6422 27.8974 20.8193 27.5431 20.9616L27.4675 20.9924C27.3569 21.0371 27.244 21.0786 27.1318 21.1192C27.092 21.1339 27.0522 21.1477 27.0124 21.1623C27.782 22.6431 28.78 23.4858 30.1331 23.8028C30.6468 23.9231 31.0532 24.1791 31.3409 24.5635L31.5603 24.8569V25.2226Z" fill="#7E7E7E"/>
</svg>
