<svg width="39" height="40" viewBox="0 0 39 40" fill="none" xmlns="http://www.w3.org/2000/svg">
<path d="M19.6859 18.6009L15.303 12.3317H12.9648L18.3962 20.0996L19.0788 21.0765L23.7276 27.7261H26.0657L20.3686 19.577L19.6859 18.6009Z" fill="#7E7E7E"/>
<path d="M19.5215 0.644531C8.82537 0.644531 0.153717 9.31618 0.153717 20.0131C0.153717 30.7101 8.82537 39.3809 19.5215 39.3809C30.2184 39.3809 38.8901 30.7101 38.8901 20.0131C38.8901 9.31618 30.2184 0.644531 19.5215 0.644531ZM23.0113 28.8205L18.3065 21.9734L12.4167 28.8205H10.8945L17.6311 20.99L10.8945 11.1862H16.0325L20.487 17.6693L26.0646 11.1862H27.5868L21.1632 18.6526L28.1492 28.8205H23.0113Z" fill="#7E7E7E"/>
</svg>
