<svg width="40" height="40" viewBox="0 0 40 40" fill="none" xmlns="http://www.w3.org/2000/svg">
<path d="M23.2015 19.8936L18.6699 17.4278C18.4846 17.3222 17.849 17.4563 17.849 17.67V22.478C17.849 22.6885 18.4789 22.8235 18.665 22.7227L23.399 20.3804C23.5908 20.2764 23.3917 20.0017 23.2015 19.8936Z" fill="#7E7E7E"/>
<path d="M20.2002 0.644531C9.50406 0.644531 0.832397 9.31618 0.832397 20.0131C0.832397 30.7092 9.50406 39.3809 20.2002 39.3809C30.8971 39.3809 39.5688 30.7092 39.5688 20.0131C39.5688 9.31618 30.8971 0.644531 20.2002 0.644531ZM29.6073 22.4691C29.6073 24.7496 27.7592 26.5977 25.4787 26.5977H14.9224C12.6419 26.5977 10.7938 24.7496 10.7938 22.4691V17.5563C10.7938 15.2766 12.6419 13.4277 14.9224 13.4277H25.4787C27.7592 13.4277 29.6073 15.2766 29.6073 17.5563V22.4691Z" fill="#7E7E7E"/>
</svg>
